<svg viewBox="0 0 300 81" xmlns="http://www.w3.org/2000/svg" xml:space="preserve" style="fill-rule:evenodd;clip-rule:evenodd;stroke-linejoin:round;stroke-miterlimit:2"><path d="M219.218 59.815a.5135.5135 0 0 1-.153.094.5219.5219 0 0 1-.18.033c.15 0 .254-.055.333-.127ZM193.699 58.144c-.095.038-.215.092-.356.157l.168.168.188-.325ZM194.711 57.788l-.185.236c-.121.191-.263.375-.263.375.181 0 .348-.098.437-.257l.011-.354.025-.032c-.007-.024-.014-.049-.022-.072l-.003.104ZM193.877 58.161l.386.238c-.164 0-.317-.08-.41-.214l.024-.024ZM193.895 58.142l-.017.017.372.217-.331-.26-.024.026ZM193.786 58.013l-.009.013a.1137.1137 0 0 1-.013-.03l.022.017ZM103.978 56.299a7.9379 7.9379 0 0 0-.261-.308c-.121-.134-.237-.249-.237-.192 0 .438.465.496.498.5ZM243.11 22.318l-.029.035.024-.027.005-.008.014-.018c.01-.016.021-.034.032-.056l-.046.074ZM230.512 21.275a.497.497 0 0 1-.353.147l.003-.001a.495.495 0 0 0 .35-.146ZM229.715 20.697l.006.29c.103.238.413.419.438.433-.013-.047-.246-.959-.353-.853a.5985.5985 0 0 0-.059.071l-.032.059ZM217.528 17.117a.3885.3885 0 0 1 .016-.094l-.016.094ZM217.644 16.829a.4868.4868 0 0 0-.091.163c.012-.041.026-.09.089-.161l.002-.002ZM71.152 11.672l-.008.015.012-.02-.004.005Z" style="fill:#74d700"/><path d="m208.183 29.128.014-.022.403.717v-.001l-.399-.724c1.431-2.265 5.937-8.501 9.441-12.267l.018-.02c2.61-2.826 3.789-4.197 4.138-4.991.102-.232.13-.407.091-.554-.039-.146-.142-.261-.281-.378-.001 0-.001 0-.001-.001-1.115-.939-1.976-1.77-2.828-2.36-.832-.577-1.653-.922-2.708-.903h-.009c-.761 0-1.645.078-2.371.248-.47.11-.873.256-1.124.449-5.868 4.497-18.393 22.79-21.104 26.461-.186.252-.367.479-.433.561a.506.506 0 0 1-.212.153c-.778.294-5.956 2.379-7.285 2.916a.5005.5005 0 0 1-.621-.216c-.509-.89-2.25-3.543-5.431-4.392-6.638-1.773-15.493-3.131-21.352-4.135h-.001c-7.669-1.326-10.621-1.828-11.754-2.112l-.354-.104a.5035.5035 0 0 1-.33-.378.5005.5005 0 0 1 .164-.474c.037-.032.077-.067.116-.096.27-.211.696-.493 1.262-.825 4.155-2.44 15.953-7.656 30.068-8.106 4.558-.146 7.632 1.538 8.334 1.821-.008-.15-.06-.409-.141-.747-.504-2.092-2.177-7.054-2.753-7.95 0-.001-.001-.002-.002-.003-.563-.892-1.596-1.576-2.972-2.036h-.001c-2.098-.701-4.989-.881-8.268-.474h-.004c-11.544 1.484-27.738 7.293-34.191 12.264-1.453 1.119-2.236 1.926-2.428 2.936-.192 1.013.21 2.22 1.094 4.127 0-.001-.001-.002-.002-.003l1.346 2.321c.079.138.089.305.025.45a.4972.4972 0 0 1-.347.288c-2.21.505-11.151 2.535-13.546 2.939a.499.499 0 0 1-.462-.167.4993.4993 0 0 1-.096-.483c5.898-17.826 6.223-23.478 6.223-24.033 0-.13-.097-.324-.255-.57-.408-.634-1.236-1.562-2.21-2.534-1.467-1.463-3.269-3.024-4.489-3.829-.487-.321-.872-.524-1.099-.532a.3012.3012 0 0 0-.036.012c-.134.055-.438.215-.876.464-2.228 1.263-7.847 4.781-11.931 8.365-14.564 12.78-30.028 32.533-35.754 40.42h-.001c-1 1.377-1.702 2.392-2.051 2.944a4.664 4.664 0 0 0-.236.424c-.447 1.841.79 5.577 6.85 7.906.001 0 .001 0 .001.001.02.007.044 0 .072-.01.137-.049.317-.193.534-.4.796-.762 2.012-2.358 3.066-3.645h.001c.717-.873 1.362-1.605 1.758-1.851.983-.613 20.885-7.23 24.944-8.458l.202-.059a.4998.4998 0 0 1 .469.104c.128.113.19.284.164.453-.187 1.203-.878 4.333-1.767 7.891l.001-.001c-2.31 9.497-4.019 18.525-3.994 21.634.005.505.045.844.153.985 0 0 .001 0 .001.001.015.019.028.036.05.032.059-.008.12-.006.179.006.04.009.296.065.5.125.409.12.922.283 1.25.283.049 0 .106-.02.17-.053.001 0 .001-.001.002-.001.192-.097.434-.298.701-.556.928-.897 2.148-2.462 2.712-2.942.002-.001.003-.003.005-.004.569-.471.97-.765 1.252-.921.085-.048.187-.089.259-.114.241-.084.507.028.616.258.115.243.652 1.227 1.116 1.598.095.076.181.13.259.117.03-.005.056-.023.08-.054a.4904.4904 0 0 1 .166-.141c.153-.081.961-.508 1.993-1.005 5.2-2.507 19.15-8.875 30.713-13.49 1.353-.54 35.797-13.326 39.31-14.593.174-.064.339-.122.491-.174a.501.501 0 0 1 .558.164c.131.168.142.401.026.58-1.103 1.702-3.738 5.951-4.595 12.269-.975 7.2 6.681 8.652 7.708 8.652.772 0 1.988-.535 3.267-1.326 1.94-1.2 4.024-2.993 4.939-4.477 1.348-2.185-.147-4.033-.5-4.586-.117.116-.266.238-.321.283l-.021.017a.738.738 0 0 1-.297-.107l-.014-.01c-.931.442-2.546 1.289-3.565 1.829a.5017.5017 0 0 1-.574-.075.5004.5004 0 0 1-.118-.567c1.32-3.026 5.53-12.253 9.469-16.544a.4875.4875 0 0 1 .123-.098c.033-.019.597-.322 1.246-.595 2.983-1.256 10.545-3.87 18.261-5.094.177-.028.356.041.469.182.112.141.14.331.073.498-.034.086-.072.177-.114.27-.42.945-1.276 2.566-2.419 4.368-.001.001-.002.003-.003.004-4 6.161-6.245 10.367-8.167 15.046a.4972.4972 0 0 1-.044.106c-.592 1.463-.994 2.403-1.221 3.081-.331.99-.274 1.397.122 2.109.121.217.569.563 1.154.965h.001c1.418.978 3.638 2.25 4.273 2.74.316.245.595.392.871.409.27.016.533-.095.825-.346.964-.828 2.186-3.091 4.584-7.453h-.001c1.808-3.335 5.183-9.001 7.514-12.658 1.631-2.56 3.993-6.596 5.704-9.049.744-1.067 1.372-1.837 1.765-2.073.006-.004.013-.007.02-.011.112-.06.583-.197 1.296-.381 2.841-.734 9.579-2.25 12.546-2.791.258-.047.506-.086.715-.117.189-.028.378.055.486.213.108.158.116.363.021.53-2.141 3.758-3.935 7.579-4.731 11.177-.834 3.767-.576 7.289 1.535 10.233.876 1.22 3.429 6.682 12.489 6.82 4.682.071 9.683-2.943 14.072-6.676 6.6-5.615 11.813-12.867 12.473-13.819.002-.002.003-.004.005-.007 1.124-1.564 7.488-7.868 9.689-17.236.514-2.183.171-3.769-1.803-5.608-4.142-3.861-8.263-6.341-11.026-6.958-4.442-.992-9.761 1.534-12.576 4.587-.264.287-.434.316-.889.307h-.001c-.268-.006-.647-.024-1.235.008-.003 0-.007.001-.01.001-3.499.119-6.204 1.395-9.108 4.179l-2.479 2.441a.4935.4935 0 0 1-.29.14l-6.701.829c-2.716.351-5.112.616-6.229.719a.5001.5001 0 0 1-.475-.241.5008.5008 0 0 1 .011-.532c.255-.387.633-.92 1.059-1.487.012-.02.025-.037.031-.043 4.176-5.74 5.624-7.547 6.67-8.473 1.424-1.256 2.535-2.415 3.075-3.189.212-.304.336-.539.336-.693 0-.076-.044-.173-.104-.292-.09-.179-.227-.384-.406-.602-.775-.948-2.267-2.233-3.604-3.014l-1.472-.851-1.7.734c-5.43 3.721-13.288 13.773-14.528 15.856l-.007.01c-.374.631-1.597 2.532-2.455 3.627 0 0-.001 0-.001.001-.246.314-.571.639-.643.709a.499.499 0 0 1-.316.14c-2.741.178-14.444 3.008-18.414 4.203a.5604.5604 0 0 1-.107.02l-.037.001-.427-.76ZM68.431 2.245c1.819.017 3.385.119 4.07.313a.164.164 0 0 0 .011.003c.677.175 1.54.71 2.479 1.49 1.43 1.188 3.026 2.943 4.392 4.884l.003.003c1.689 2.359 2.318 4.754 1.002 6.601-6.152 8.632-22.29 17.513-27.863 20.319-.001.001-.002.002-.003.002-1.849.949-4.455 1.804-6.067 2.362a.4999.4999 0 0 0 .151.972c2.983.075 9.216.081 9.722.118 4.415.324 5.676 1.049 8.206 3.89l.001.001c1.649 1.841 2.655 3.208 3.118 4.3.296.702.365 1.285.227 1.808 0 .002-.001.005-.001.007-.143.576-.637 1.307-1.382 2.122-1.778 1.944-4.978 4.34-8.395 6.187-4.534 2.448-7.183 3.611-18.058 7.945C20.73 72.45 8.12 72.17 7.831 72.165H7.83c-.913-.014-1.812-.503-2.592-1.158-1.186-.996-2.098-2.378-2.362-3.135-.056-.164-.085-.292-.067-.375l.005-.016h.001c12.54-2.09 27.558-6.855 40.297-12.561h.002c5.278-2.383 10.896-5.418 12.933-6.929l.288-.233a.5008.5008 0 0 0 .147-.539.5026.5026 0 0 0-.445-.338c-3.096-.182-15.595-.32-29.2 3.384-.27.072-.672.363-1.128.796-1.025.973-2.352 2.659-3.116 4.004-1.993 3.507-3.81 4.683-5.28 4.905-1.418.215-2.501-.462-3.074-.738.003-.071.014-.225.047-.36.275-1.134 1.449-4.106 2.768-7.131 2.1-4.813 5.775-10.983 11.818-20.764 3.342-5.41 6.217-9.739 7.211-11.441a.5008.5008 0 0 0-.052-.577.5003.5003 0 0 0-.563-.14c-.46.18-1.09.441-1.696.735l-.003.001c-1.747.826-3.348 1.914-4.35 2.879-.408.394-.719.768-.902 1.095-.131.236-.198.451-.198.636 0 .403-.413.869-.926 1.129l.001-.001c-.006.003-.017.008-.023.011l.017-.008c-.628.286-1.218.283-1.984-.103v-.001c-.801-.402-1.784-1.209-3.177-2.523-.001-.001-.002-.001-.003-.002-1.683-1.566-2.088-2.145-2.088-3.241 0-.855.374-1.66 1.245-2.534 1.346-1.35 3.859-2.85 8.002-4.904 9.123-4.521 22.623-7.861 31.408-9.306h.004c1.686-.292 4.646-.446 7.212-.44l.424.003Zm97.452 38.422c-4.695-.642-16.375-2.93-18.382-3.372l-.003-.001c-1.433-.337-2.785-.708-3.565-.878-.244-.052-.499-.084-.539-.089a.5016.5016 0 0 0-.189.01c-14.306 3.584-22.127 6.292-24.761 7.563-.434.208-.812.463-.899.522a.503.503 0 0 0-.206.301c-2 8.584-5.762 17.519-7.026 20.919-.09.244-.171.483-.237.687a.502.502 0 0 0 .166.547c.165.129.392.143.57.034l1.508-.914c5.096-3.09 13.033-7.349 19.052-9.958.001-.001.002-.001.003-.002 8.188-3.612 22.566-9.024 29.31-11.313h.002c3.374-1.164 6.466-2.289 6.878-2.493.003-.002.007-.003.01-.005.133-.07.262-.165.344-.229.125-.1.195-.253.189-.413a.5029.5029 0 0 0-.223-.395l-.047-.03c-.11-.063-.254-.124-.43-.182-.001-.001-.002-.001-.003-.001-.366-.119-.874-.224-1.522-.309v.001Zm105.934-17.875.019.008h-.004c.167.08.383.139.63.18 1.094.185 2.838.029 3.68.008.133-.003.27.007.354.016-.041.669-.534 1.306-1.306 1.912-1.955 1.535-5.697 2.83-8.893 3.718-2.744.763-5.086 1.225-5.562 1.275h-.006c-.006.001-.012.001-.017.001-.03-.028-.057-.044-.081-.052a.5018.5018 0 0 0-.586.083.4982.4982 0 0 0-.114.546l-.482.609c-.988 1.309-2.369 3.459-3.053 5.006-1.993 4.498-3.791 10.984-3.308 15.621 0 .003 0 .006.001.009.06.487.111.84.178 1.089.001 0 .001.001.001.002.029.107.062.196.099.268.002.005.004.009.007.014a.2105.2105 0 0 0-.007-.012s.142.207.241.259l.006.003c.104.054.229.073.393.061.138-.011.306-.044.516-.095l.021-.006c.649-.187 8.476-2.548 21.851-20.726 4.944-6.72 6.575-13.201 6.907-14.722a.5007.5007 0 0 0-.366-.591c-.788-.199-2.868-.559-5.038.43-1.228.56-4.718 2.902-5.971 4.029l-.266.268a.501.501 0 0 0-.089.539c.05.112.138.2.245.25Zm-156.783-5.351a.5005.5005 0 0 0-.247-.511.5005.5005 0 0 0-.565.049c-10.795 8.885-18.425 18.015-22.371 23.793-.118.173-.116.4.005.571.12.17.334.248.536.194 2.842-.755 11.322-3.129 15.038-4.34.597-.194 1.072-.359 1.381-.483l.301-.133c.084-.04.155-.103.206-.182.023-.036.075-.121.112-.194.104-.203.231-.504.379-.884.971-2.507 2.79-8.473 3.85-11.88.001-.001.001-.002.001-.003.796-2.612 1.2-4.863 1.374-5.997Zm-43.882-5.769.05-.095a.5073.5073 0 0 0 .05-.174.5016.5016 0 0 0-.401-.54c-.336-.066-1.105-.169-2.322-.207-3.71-.112-11.578.411-24.013 4.593l.146.897-.002.003-.173-.889s-.261.1-.303.117c-.338.135-.322.46-.322.467 0 .172.088.332.234.423.484.304 1.164.769 1.779 1.326.727.658 1.372 1.444 1.481 2.251.023.174-.043.353-.142.519 0 .001 0 .001-.001.002-.156.264-.397.496-.558.636a.4522.4522 0 0 0-.083.092c-.04.057-.321.462-.627.932-1.33 2.04-4.256 6.706-5.369 8.642a.4996.4996 0 0 0 .614.715c10.157-3.949 19.859-10.459 25.388-15.075h.001c2.437-2.037 4.066-3.709 4.573-4.635Z" style="fill:#f7f7fa"/><path d="m260.751 29.951.003.005.001-.001-.004-.004ZM272.049 22.849l-.04-.01h-.003l.043.01Z" style="fill:#74d700"/></svg>