<svg viewBox="0 0 300 81" xmlns="http://www.w3.org/2000/svg" xml:space="preserve" style="fill-rule:evenodd;clip-rule:evenodd;stroke-linejoin:round;stroke-miterlimit:2"><path d="M105.738 47.952c-.186 1.197-.874 4.309-1.758 7.847v.002c-2.323 9.55-4.033 18.63-4.008 21.756.006.664.114 1.1.257 1.286.142.185.318.253.52.223.037.008.275.06.465.116.454.133 1.027.303 1.391.303.113 0 .248-.032.396-.107.225-.113.512-.342.824-.643.921-.89 2.129-2.445 2.689-2.921.535-.443.91-.722 1.18-.871.058-.033.127-.06.176-.077.128.271.738 1.36 1.255 1.774.231.185.464.252.655.22.143-.024.282-.095.396-.246.152-.08.953-.504 1.977-.997 5.195-2.504 19.13-8.865 30.681-13.476 1.351-.539 14.2-5.695 17.849-6.899h.002c8.549-2.861 17.93-6.42 21.444-7.688.172-.063.335-.12.485-.172-1.121 1.73-3.799 6.051-4.67 12.474-1.039 7.668 7.109 9.219 8.203 9.219.832 0 2.152-.549 3.53-1.401 2.007-1.241 4.155-3.104 5.102-4.64 1.521-2.466-.156-4.553-.516-5.135l-.013-.023a.3736.3736 0 0 0-.064-.135c-.05-.067-.129-.137-.266-.154-.046-.006-.156-.002-.31.055-.602.22-2.894 1.418-4.209 2.114 1.309-3 5.474-12.152 9.379-16.406.032-.018.573-.308 1.195-.57 2.964-1.248 10.478-3.845 18.145-5.061-.032.08-.067.165-.106.252-.414.931-1.259 2.528-2.385 4.304-4.031 6.208-6.288 10.442-8.224 15.16 0 0 0 .001-.001.001-.614 1.52-1.029 2.489-1.262 3.185-.394 1.179-.313 1.663.159 2.511.139.25.635.671 1.308 1.134 1.411.972 3.62 2.236 4.251 2.724.413.319.786.49 1.147.512.383.023.767-.11 1.181-.466.983-.844 2.25-3.141 4.696-7.592 0-.001 0-.002.001-.002 1.803-3.327 5.17-8.979 7.496-12.627 1.628-2.555 3.984-6.584 5.692-9.032.687-.986 1.249-1.712 1.612-1.93.102-.055.534-.169 1.184-.337 2.833-.732 9.552-2.244 12.511-2.783.252-.046.494-.084.698-.114-2.168 3.805-3.979 7.675-4.785 11.317-.867 3.915-.577 7.572 1.617 10.633.903 1.258 3.541 6.886 12.887 7.028 4.788.073 9.916-2.978 14.404-6.795 6.646-5.654 11.895-12.956 12.56-13.915 1.135-1.58 7.547-7.954 9.77-17.414.557-2.369.193-4.092-1.949-6.088-4.225-3.938-8.44-6.451-11.258-7.08-4.608-1.029-10.133 1.569-13.053 4.737-.149.162-.254.15-.511.145-.276-.006-.667-.024-1.273.009-3.625.124-6.431 1.436-9.439 4.32l-2.482 2.444-6.703.829c-2.708.35-5.098.614-6.212.717.253-.384.629-.914 1.058-1.486.001-.002.002-.003.003-.004 4.146-5.699 5.575-7.496 6.612-8.413 1.462-1.29 2.6-2.483 3.154-3.278.294-.422.426-.766.426-.979 0-.266-.212-.709-.623-1.211-.804-.983-2.352-2.319-3.739-3.129l-1.528-.884a.3776.3776 0 0 0-.337-.019l-1.766.763a.383.383 0 0 0-.063.034c-5.484 3.75-13.434 13.916-14.688 16.021l-.001.001c-.361.611-1.575 2.499-2.425 3.584-.229.292-.531.594-.598.659-2.758.179-14.532 3.021-18.526 4.223l.014-.023c1.425-2.255 5.916-8.471 9.402-12.213.001-.001.001-.001.001-.002 2.676-2.897 3.871-4.315 4.229-5.129.162-.369.178-.65.116-.884-.064-.239-.214-.44-.443-.632-1.129-.951-2.002-1.791-2.865-2.389-.921-.639-1.834-1.013-3.002-.992-.798 0-1.724.083-2.485.261-.551.129-1.019.313-1.314.539-5.892 4.516-18.48 22.875-21.202 26.561-.18.244-.356.464-.42.543-.779.295-5.964 2.383-7.295 2.92-.537-.939-2.38-3.731-5.736-4.627-6.652-1.777-15.525-3.139-21.397-4.145-7.645-1.322-10.588-1.821-11.718-2.104a4.1961 4.1961 0 0 1-.314-.093c.03-.026.062-.054.096-.08.259-.202.667-.47 1.208-.788 4.122-2.42 15.828-7.591 29.831-8.037 4.496-.144 7.512 1.544 8.157 1.795.148.057.253.06.303.053a.377.377 0 0 0 .226-.111c.053-.052.117-.146.13-.301.013-.152-.038-.501-.153-.979-.514-2.133-2.231-7.189-2.818-8.103-.616-.975-1.732-1.74-3.237-2.243-2.154-.72-5.122-.914-8.489-.496h-.002c-11.627 1.494-27.936 7.357-34.436 12.364-1.587 1.222-2.405 2.135-2.614 3.239-.206 1.088.187 2.395 1.138 4.444.005.01.01.02.016.03l1.342 2.315c-2.206.504-11.128 2.53-13.518 2.933 5.935-17.94 6.248-23.631 6.248-24.19 0-.188-.105-.484-.335-.841-.421-.654-1.272-1.614-2.277-2.617-1.492-1.488-3.326-3.074-4.567-3.892-.611-.403-1.11-.615-1.388-.615-.034 0-.107.007-.209.048-.142.058-.468.227-.936.493-2.243 1.272-7.901 4.815-12.014 8.424C91.289 22.63 75.792 42.423 70.054 50.326c-1.01 1.39-1.718 2.414-2.07 2.971-.184.291-.277.484-.295.556-.485 1.949.702 6.029 7.153 8.508.114.044.255.053.42-.005.179-.064.427-.238.711-.509.807-.772 2.04-2.387 3.108-3.69.672-.818 1.266-1.513 1.637-1.744.976-.609 20.785-7.181 24.824-8.403.068-.02.134-.04.196-.058ZM35.651 19.284c-.993 1.7-3.865 6.025-7.204 11.43-6.061 9.81-9.745 16-11.851 20.827-1.334 3.059-2.518 6.066-2.796 7.213-.081.334-.075.563-.041.659.047.133.131.207.221.249.609.283 1.818 1.043 3.408.802 1.558-.235 3.527-1.434 5.64-5.152.742-1.306 2.03-2.944 3.025-3.888.376-.357.692-.617.915-.677 13.531-3.683 25.961-3.548 29.04-3.367-.081.07-.169.142-.259.209-2.022 1.5-7.601 4.51-12.841 6.875-12.701 5.689-27.674 10.44-40.176 12.524-.213.036-.359.165-.411.402-.031.141-.014.366.083.646.281.808 1.246 2.291 2.512 3.354.872.732 1.886 1.259 2.906 1.275.291.005 12.973.293 32.394-6.623a.0694.0694 0 0 0 .013-.005c10.907-4.347 13.563-5.515 18.111-7.97 3.471-1.877 6.72-4.315 8.526-6.29.817-.894 1.342-1.707 1.498-2.339.162-.615.098-1.304-.251-2.13-.477-1.126-1.506-2.541-3.206-4.439-2.634-2.958-3.945-3.718-8.543-4.056-.507-.037-6.755-.044-9.745-.119 1.629-.564 4.262-1.43 6.131-2.389 5.612-2.826 21.85-11.784 28.045-20.476 1.43-2.006.832-4.62-1.003-7.182-1.394-1.98-3.023-3.769-4.482-4.981-1.009-.838-1.945-1.401-2.673-1.589-1.718-.487-8.873-.416-11.927.112-8.825 1.451-22.385 4.81-31.549 9.351-4.215 2.089-6.765 3.626-8.134 4.999-.989.992-1.391 1.917-1.391 2.887 0 1.208.392 1.881 2.248 3.607 1.442 1.36 2.466 2.189 3.295 2.606.932.47 1.651.46 2.416.112.004-.002.009-.004.013-.006.701-.351 1.211-1.031 1.211-1.58 0-.115.053-.245.135-.392.164-.294.446-.626.812-.979.971-.936 2.526-1.988 4.22-2.788.001 0 .003-.001.004-.002.594-.288 1.211-.543 1.661-.72Zm107.676 17.538c.037.005.274.034.5.083.779.169 2.13.54 3.561.877.002 0 .004.001.005.001 2.012.443 13.717 2.736 18.423 3.379h.002c.61.08 1.088.176 1.432.288.138.046.252.092.339.142.006.004.013.008.019.012-.063.05-.162.124-.265.178-.408.202-3.474 1.314-6.819 2.468-6.753 2.292-21.151 7.711-29.351 11.329-6.038 2.617-14 6.89-19.112 9.989-.666.403-1.173.71-1.509.915.064-.198.142-.43.23-.667 1.267-3.41 5.038-12.371 7.044-20.98.081-.055.432-.292.835-.486 2.623-1.266 10.415-3.958 24.666-7.528Zm50.184 21.164v-.017.017Zm67.178-27.577c.03.001.062.001.097-.003.483-.05 2.861-.516 5.645-1.29 3.261-.906 7.073-2.241 9.068-3.807.953-.748 1.5-1.566 1.5-2.396 0-.128-.047-.275-.237-.364-.078-.036-.304-.069-.632-.061-.821.021-2.521.179-3.586-.001-.194-.032-.364-.075-.495-.138l-.019-.009c.064-.07.148-.157.232-.233 1.226-1.104 4.641-3.398 5.843-3.946 2.028-.924 3.972-.586 4.708-.4-.327 1.501-1.94 7.898-6.821 14.532-13.233 17.985-20.944 20.357-21.586 20.542-.178.043-.32.073-.437.082-.052.004-.093.011-.126-.006-.015-.008-.02-.027-.031-.047-.024-.047-.043-.105-.062-.174-.063-.233-.109-.563-.165-1.019-.475-4.562 1.307-10.941 3.268-15.367.671-1.516 2.026-3.623 2.995-4.907.36-.476.658-.836.841-.988ZM114.54 17.365c-.172 1.121-.572 3.346-1.358 5.927-1.058 3.398-2.871 9.348-3.839 11.848-.14.36-.26.646-.358.838-.029.057-.07.123-.088.151-.04.019-.156.075-.271.121-.303.121-.767.282-1.351.472-3.709 1.208-12.174 3.578-15.011 4.332 3.929-5.753 11.527-14.842 22.276-23.689Zm-43.786-6.011-.032.065c-.484.896-2.083 2.515-4.464 4.504-5.499 4.591-15.148 11.066-25.249 14.993 1.11-1.93 4.029-6.584 5.355-8.618.302-.464.579-.863.618-.919.192-.166.476-.445.662-.76.159-.267.245-.56.208-.841-.123-.91-.822-1.814-1.641-2.556-.64-.579-1.346-1.062-1.849-1.378 0-.001.313-.121.313-.121 12.346-4.152 20.156-4.678 23.839-4.567 1.174.036 1.916.134 2.24.198Zm189.64 18.945c.007.007.023.022.049.039.034.021.07.037.108.048a.2994.2994 0 0 1-.157-.087Zm-.003-.002c-.003-.003-.005-.006-.008-.009-.003-.004-.006-.007-.009-.01l.017.019Z" style="fill:#151515;fill-rule:nonzero"/></svg>